<?xml version="1.0" encoding="UTF-8" standalone="no"?>
<!DOCTYPE svg PUBLIC "-//W3C//DTD SVG 1.1//EN" "http://www.w3.org/Graphics/SVG/1.1/DTD/svg11.dtd">
<svg width="100%" height="100%" viewBox="0 0 320 120" version="1.1" xmlns="http://www.w3.org/2000/svg" xmlns:xlink="http://www.w3.org/1999/xlink" xml:space="preserve" xmlns:serif="http://www.serif.com/" style="fill-rule:evenodd;clip-rule:evenodd;stroke-linejoin:round;stroke-miterlimit:2;">
    <g transform="matrix(1,0,0,1,-247.661,-2716.54)">
        <g transform="matrix(1,0,0,1,-246.646,968.504)">
            <g transform="matrix(0.717157,0,0,0.717157,-283.763,1511.46)">
                <path d="M1176.8,455.144L1151.75,480.199L1168.45,496.902L1193.51,471.847L1176.8,455.144ZM1143.4,438.441L1126.69,455.144L1143.4,471.847L1160.1,455.144L1143.4,438.441ZM1218.56,446.792L1135.05,363.276L1118.34,379.979L1201.86,463.496L1218.56,446.792ZM1084.93,413.386L1109.99,438.441L1114.17,434.265L1093.29,413.386L1114.17,392.507L1109.99,388.331L1084.93,413.386ZM1243.62,413.386L1222.74,392.507L1226.91,388.331L1251.97,413.386L1226.91,438.441L1222.74,434.265L1243.62,413.386ZM1193.51,354.924L1176.8,371.628L1193.51,388.331L1210.21,371.628L1193.51,354.924ZM1168.45,329.869L1143.4,354.924L1160.1,371.628L1185.15,346.573L1168.45,329.869Z" style="fill:url(#_Linear1);"/>
            </g>
            <g transform="matrix(1,0,0,1,230.046,55.7892)">
                <text x="402.823px" y="1775.83px" style="font-family:'Calibri-Bold', 'Calibri', sans-serif;font-weight:700;font-size:75px;fill:url(#_Linear2);">S<tspan x="439.247px 466.223px 507.518px 548.739px " y="1775.83px 1775.83px 1775.83px 1775.83px ">tone</tspan></text>
            </g>
        </g>
    </g>
    <defs>
        <linearGradient id="_Linear1" x1="0" y1="0" x2="1" y2="0" gradientUnits="userSpaceOnUse" gradientTransform="matrix(47.8376,-116.677,116.677,47.8376,1145.08,471.602)"><stop offset="0" style="stop-color:rgb(59,130,246);stop-opacity:1"/><stop offset="1" style="stop-color:rgb(150,0,255);stop-opacity:1"/></linearGradient>
        <linearGradient id="_Linear2" x1="0" y1="0" x2="1" y2="0" gradientUnits="userSpaceOnUse" gradientTransform="matrix(165.354,-35.4331,35.4331,165.354,422.413,1776.77)"><stop offset="0" style="stop-color:rgb(59,130,246);stop-opacity:1"/><stop offset="1" style="stop-color:rgb(150,0,255);stop-opacity:1"/></linearGradient>
    </defs>
</svg>
