<?xml version="1.0" encoding="UTF-8" standalone="no"?><!DOCTYPE svg PUBLIC "-//W3C//DTD SVG 1.1//EN" "http://www.w3.org/Graphics/SVG/1.1/DTD/svg11.dtd"><svg width="100%" height="100%" viewBox="0 0 41 41" version="1.1" xmlns="http://www.w3.org/2000/svg" xmlns:xlink="http://www.w3.org/1999/xlink" xml:space="preserve" xmlns:serif="http://www.serif.com/" style="fill-rule:evenodd;clip-rule:evenodd;stroke-linejoin:round;stroke-miterlimit:2;"><path d="M22.048,30.066l-6.013,6.013l4.009,4.009l6.013,-6.013l-4.009,-4.009Zm-8.017,-4.009l-4.009,4.009l4.009,4.009l4.009,-4.009l-4.009,-4.009Zm18.039,2.005l-20.044,-20.044l-4.008,4.008l20.044,20.044l4.008,-4.008Zm-32.07,-8.018l6.013,6.013l1.002,-1.002l-5.011,-5.011l5.011,-5.011l-1.002,-1.002l-6.013,6.013Zm38.084,-0l-5.011,-5.011l1.002,-1.002l6.013,6.013l-6.013,6.013l-1.002,-1.002l5.011,-5.011Zm-12.027,-14.031l-4.009,4.009l4.009,4.009l4.009,-4.009l-4.009,-4.009Zm-6.013,-6.013l-6.013,6.013l4.009,4.009l6.013,-6.013l-4.009,-4.009Z" style="fill:url(#_Linear1);"/><defs><linearGradient id="_Linear1" x1="0" y1="0" x2="1" y2="0" gradientUnits="userSpaceOnUse" gradientTransform="matrix(11.481,-28.0026,28.0026,11.481,14.4337,34.0157)"><stop offset="0" style="stop-color:#3b82f6;stop-opacity:1"/><stop offset="1" style="stop-color:#9600ff;stop-opacity:1"/></linearGradient></defs></svg>